<svg width="35" height="35" viewBox="0 0 35 35" fill="none" xmlns="http://www.w3.org/2000/svg">
<g clip-path="url(#clip0)">
<path d="M34.9658 10.2901C34.8838 8.43041 34.5831 7.15189 34.1523 6.04404C33.7079 4.86808 33.0241 3.81525 32.1284 2.94003C31.2531 2.05118 30.1933 1.36051 29.031 0.923032C27.9167 0.49223 26.6449 0.191497 24.7852 0.109503C22.9116 0.0205652 22.3169 0 17.565 0C12.813 0 12.2183 0.0205652 10.3516 0.102559C8.49194 0.184553 7.21342 0.485553 6.10584 0.916088C4.92961 1.36051 3.87678 2.04424 3.00155 2.94003C2.11271 3.81525 1.4223 4.87503 0.984556 6.03736C0.553754 7.15189 0.253021 8.42347 0.171027 10.2832C0.0820887 12.1567 0.0615234 12.7515 0.0615234 17.5034C0.0615234 22.2553 0.0820887 22.8501 0.164083 24.7167C0.246077 26.5764 0.547077 27.8549 0.977879 28.9628C1.4223 30.1388 2.11271 31.1916 3.00155 32.0668C3.87678 32.9557 4.93656 33.6463 6.09889 34.0838C7.21342 34.5146 8.485 34.8153 10.3449 34.8973C12.2113 34.9796 12.8064 34.9999 17.5583 34.9999C22.3102 34.9999 22.905 34.9796 24.7716 34.8973C26.6313 34.8153 27.9098 34.5146 29.0174 34.0838C31.3696 33.1744 33.2293 31.3147 34.1387 28.9628C34.5692 27.8483 34.8702 26.5764 34.9522 24.7167C35.0342 22.8501 35.0548 22.2553 35.0548 17.5034C35.0548 12.7515 35.0478 12.1567 34.9658 10.2901ZM31.814 24.58C31.7387 26.2893 31.4516 27.2123 31.2123 27.8277C30.6242 29.3525 29.414 30.5626 27.8892 31.1507C27.2739 31.39 26.3442 31.6771 24.6415 31.7522C22.7955 31.8344 22.2418 31.8547 17.5719 31.8547C12.902 31.8547 12.3414 31.8344 10.502 31.7522C8.79267 31.6771 7.86964 31.39 7.25429 31.1507C6.49551 30.8703 5.80484 30.4259 5.24423 29.8447C4.66306 29.2771 4.21864 28.5934 3.93821 27.8346C3.6989 27.2193 3.41179 26.2893 3.33674 24.5869C3.25448 22.7409 3.23418 22.187 3.23418 17.517C3.23418 12.8471 3.25448 12.2865 3.33674 10.4474C3.41179 8.73809 3.6989 7.81506 3.93821 7.1997C4.21864 6.44066 4.66306 5.75025 5.25118 5.18938C5.81846 4.60821 6.50219 4.16379 7.26123 3.88362C7.87658 3.64432 8.80656 3.35721 10.5089 3.28189C12.355 3.1999 12.9089 3.17933 17.5786 3.17933C22.2554 3.17933 22.8091 3.1999 24.6485 3.28189C26.3578 3.35721 27.2808 3.64432 27.8962 3.88362C28.655 4.16379 29.3456 4.60821 29.9062 5.18938C30.4874 5.75693 30.9318 6.44066 31.2123 7.1997C31.4516 7.81506 31.7387 8.74477 31.814 10.4474C31.896 12.2935 31.9166 12.8471 31.9166 17.517C31.9166 22.187 31.896 22.7339 31.814 24.58Z" fill="#737473"/>
<path d="M17.5647 8.51227C12.601 8.51227 8.57373 12.5393 8.57373 17.5033C8.57373 22.4672 12.601 26.4943 17.5647 26.4943C22.5287 26.4943 26.5558 22.4672 26.5558 17.5033C26.5558 12.5393 22.5287 8.51227 17.5647 8.51227ZM17.5647 23.3355C14.3445 23.3355 11.7325 20.7237 11.7325 17.5033C11.7325 14.2828 14.3445 11.671 17.5647 11.671C20.7852 11.671 23.397 14.2828 23.397 17.5033C23.397 20.7237 20.7852 23.3355 17.5647 23.3355Z" fill="#737473"/>
<path d="M29.0108 8.15692C29.0108 9.31605 28.0709 10.2559 26.9115 10.2559C25.7524 10.2559 24.8125 9.31605 24.8125 8.15692C24.8125 6.99751 25.7524 6.05792 26.9115 6.05792C28.0709 6.05792 29.0108 6.99751 29.0108 8.15692Z" fill="#737473"/>
</g>
<defs>
<clipPath id="clip0">
<rect width="35" height="35" fill="white"/>
</clipPath>
</defs>
</svg>
